<svg width="24" height="25" viewBox="0 0 24 25" fill="none" xmlns="http://www.w3.org/2000/svg">
<path d="M8.90961 21.17C8.71961 21.17 8.52961 21.1 8.37961 20.95C8.08961 20.66 8.08961 20.18 8.37961 19.89L14.8996 13.37C15.3796 12.89 15.3796 12.11 14.8996 11.63L8.37961 5.11002C8.08961 4.82002 8.08961 4.34002 8.37961 4.05002C8.66961 3.76002 9.14961 3.76002 9.43961 4.05002L15.9596 10.57C16.4696 11.08 16.7596 11.77 16.7596 12.5C16.7596 13.23 16.4796 13.92 15.9596 14.43L9.43961 20.95C9.28961 21.09 9.09961 21.17 8.90961 21.17Z" fill="#4361EE"/>
</svg>
