<svg width="25" height="25" viewBox="0 0 25 25" fill="none" xmlns="http://www.w3.org/2000/svg">
<path d="M22.9412 23.7206H2.94116C2.53116 23.7206 2.19116 23.3806 2.19116 22.9706C2.19116 22.5606 2.53116 22.2206 2.94116 22.2206H22.9412C23.3512 22.2206 23.6912 22.5606 23.6912 22.9706C23.6912 23.3806 23.3512 23.7206 22.9412 23.7206Z" fill="#4361EE"/>
<path d="M15.1912 23.7206H10.6912C10.2812 23.7206 9.94116 23.3806 9.94116 22.9706V4.97057C9.94116 3.25057 10.8912 2.22057 12.4912 2.22057H13.3912C14.9912 2.22057 15.9412 3.25057 15.9412 4.97057V22.9706C15.9412 23.3806 15.6012 23.7206 15.1912 23.7206ZM11.4412 22.2206H14.4412V4.97057C14.4412 3.82057 13.9012 3.72057 13.3912 3.72057H12.4912C11.9812 3.72057 11.4412 3.82057 11.4412 4.97057V22.2206V22.2206Z" fill="#4361EE"/>
<path d="M7.94116 23.7206H3.94116C3.53116 23.7206 3.19116 23.3806 3.19116 22.9706V10.9706C3.19116 9.25057 4.07116 8.22057 5.54116 8.22057H6.34116C7.81116 8.22057 8.69116 9.25057 8.69116 10.9706V22.9706C8.69116 23.3806 8.35116 23.7206 7.94116 23.7206ZM4.69116 22.2206H7.19116V10.9706C7.19116 9.72057 6.64116 9.72057 6.34116 9.72057H5.54116C5.24116 9.72057 4.69116 9.72057 4.69116 10.9706V22.2206V22.2206Z" fill="#4361EE"/>
<path d="M21.9412 23.7206H17.9412C17.5312 23.7206 17.1912 23.3806 17.1912 22.9706V15.9706C17.1912 14.2506 18.0712 13.2206 19.5412 13.2206H20.3412C21.8112 13.2206 22.6912 14.2506 22.6912 15.9706V22.9706C22.6912 23.3806 22.3512 23.7206 21.9412 23.7206ZM18.6912 22.2206H21.1912V15.9706C21.1912 14.7206 20.6412 14.7206 20.3412 14.7206H19.5412C19.2412 14.7206 18.6912 14.7206 18.6912 15.9706V22.2206V22.2206Z" fill="#4361EE"/>
</svg>
