<svg width="25" height="25" viewBox="0 0 25 25" fill="none" xmlns="http://www.w3.org/2000/svg">
<path d="M12.9411 23.7206C7.0111 23.7206 2.1911 18.9006 2.1911 12.9706C2.1911 7.04057 7.0111 2.22057 12.9411 2.22057C18.8711 2.22057 23.6911 7.04057 23.6911 12.9706C23.6911 18.9006 18.8711 23.7206 12.9411 23.7206ZM12.9411 3.72057C7.8411 3.72057 3.6911 7.87057 3.6911 12.9706C3.6911 18.0706 7.8411 22.2206 12.9411 22.2206C18.0411 22.2206 22.1911 18.0706 22.1911 12.9706C22.1911 7.87057 18.0411 3.72057 12.9411 3.72057Z" fill="#4361EE"/>
<path d="M10.1111 16.5506C9.92109 16.5506 9.73109 16.4806 9.58109 16.3306C9.29109 16.0406 9.29109 15.5606 9.58109 15.2706L15.2411 9.61057C15.5311 9.32057 16.0111 9.32057 16.3011 9.61057C16.5911 9.90057 16.5911 10.3806 16.3011 10.6706L10.6411 16.3306C10.5011 16.4806 10.3011 16.5506 10.1111 16.5506Z" fill="#4361EE"/>
<path d="M15.7711 16.5506C15.5811 16.5506 15.3911 16.4806 15.2411 16.3306L9.58109 10.6706C9.29109 10.3806 9.29109 9.90057 9.58109 9.61057C9.87109 9.32057 10.3511 9.32057 10.6411 9.61057L16.3011 15.2706C16.5911 15.5606 16.5911 16.0406 16.3011 16.3306C16.1511 16.4806 15.9611 16.5506 15.7711 16.5506Z" fill="#4361EE"/>
</svg>
