<svg width="24" height="25" viewBox="0 0 24 25" fill="none" xmlns="http://www.w3.org/2000/svg">
<path d="M7 11.25H5C2.58 11.25 1.25 9.92 1.25 7.5V5.5C1.25 3.08 2.58 1.75 5 1.75H7C9.42 1.75 10.75 3.08 10.75 5.5V7.5C10.75 9.92 9.42 11.25 7 11.25ZM5 3.25C3.42 3.25 2.75 3.92 2.75 5.5V7.5C2.75 9.08 3.42 9.75 5 9.75H7C8.58 9.75 9.25 9.08 9.25 7.5V5.5C9.25 3.92 8.58 3.25 7 3.25H5Z" fill="#4361EE"/>
<path d="M19 11.25H17C14.58 11.25 13.25 9.92 13.25 7.5V5.5C13.25 3.08 14.58 1.75 17 1.75H19C21.42 1.75 22.75 3.08 22.75 5.5V7.5C22.75 9.92 21.42 11.25 19 11.25ZM17 3.25C15.42 3.25 14.75 3.92 14.75 5.5V7.5C14.75 9.08 15.42 9.75 17 9.75H19C20.58 9.75 21.25 9.08 21.25 7.5V5.5C21.25 3.92 20.58 3.25 19 3.25H17Z" fill="#4361EE"/>
<path d="M19 23.25H17C14.58 23.25 13.25 21.92 13.25 19.5V17.5C13.25 15.08 14.58 13.75 17 13.75H19C21.42 13.75 22.75 15.08 22.75 17.5V19.5C22.75 21.92 21.42 23.25 19 23.25ZM17 15.25C15.42 15.25 14.75 15.92 14.75 17.5V19.5C14.75 21.08 15.42 21.75 17 21.75H19C20.58 21.75 21.25 21.08 21.25 19.5V17.5C21.25 15.92 20.58 15.25 19 15.25H17Z" fill="#4361EE"/>
<path d="M7 23.25H5C2.58 23.25 1.25 21.92 1.25 19.5V17.5C1.25 15.08 2.58 13.75 5 13.75H7C9.42 13.75 10.75 15.08 10.75 17.5V19.5C10.75 21.92 9.42 23.25 7 23.25ZM5 15.25C3.42 15.25 2.75 15.92 2.75 17.5V19.5C2.75 21.08 3.42 21.75 5 21.75H7C8.58 21.75 9.25 21.08 9.25 19.5V17.5C9.25 15.92 8.58 15.25 7 15.25H5Z" fill="#4361EE"/>
</svg>
