<svg width="24" height="25" viewBox="0 0 24 25" fill="none" xmlns="http://www.w3.org/2000/svg">
<path d="M9.46992 15.7799C9.27992 15.7799 9.08992 15.7099 8.93992 15.5599C8.11992 14.7399 7.66992 13.6499 7.66992 12.4999C7.66992 10.1099 9.60992 8.16992 11.9999 8.16992C13.1499 8.16992 14.2399 8.61992 15.0599 9.43992C15.1999 9.57992 15.2799 9.76992 15.2799 9.96992C15.2799 10.1699 15.1999 10.3599 15.0599 10.4999L9.99992 15.5599C9.84992 15.7099 9.65992 15.7799 9.46992 15.7799ZM11.9999 9.66992C10.4399 9.66992 9.16992 10.9399 9.16992 12.4999C9.16992 12.9999 9.29992 13.4799 9.53992 13.8999L13.3999 10.0399C12.9799 9.79992 12.4999 9.66992 11.9999 9.66992Z" fill="#4361EE"/>
<path d="M5.59984 19.01C5.42984 19.01 5.24984 18.95 5.10984 18.83C4.03984 17.92 3.07984 16.8 2.25984 15.5C1.19984 13.85 1.19984 11.16 2.25984 9.49998C4.69984 5.67998 8.24984 3.47998 11.9998 3.47998C14.1998 3.47998 16.3698 4.23998 18.2698 5.66998C18.5998 5.91998 18.6698 6.38998 18.4198 6.71998C18.1698 7.04998 17.6998 7.11998 17.3698 6.86998C15.7298 5.62998 13.8698 4.97998 11.9998 4.97998C8.76984 4.97998 5.67984 6.91998 3.51984 10.31C2.76984 11.48 2.76984 13.52 3.51984 14.69C4.26984 15.86 5.12984 16.87 6.07984 17.69C6.38984 17.96 6.42984 18.43 6.15984 18.75C6.01984 18.92 5.80984 19.01 5.59984 19.01Z" fill="#4361EE"/>
<path d="M12.0006 21.52C10.6706 21.52 9.37055 21.25 8.12055 20.72C7.74055 20.56 7.56055 20.12 7.72055 19.74C7.88055 19.36 8.32055 19.18 8.70055 19.34C9.76055 19.79 10.8706 20.02 11.9906 20.02C15.2206 20.02 18.3106 18.08 20.4706 14.69C21.2206 13.52 21.2206 11.48 20.4706 10.31C20.1606 9.82 19.8205 9.35 19.4606 8.91C19.2006 8.59 19.2506 8.12 19.5706 7.85C19.8906 7.59 20.3605 7.63 20.6306 7.96C21.0206 8.44 21.4006 8.96 21.7406 9.5C22.8006 11.15 22.8006 13.84 21.7406 15.5C19.3006 19.32 15.7506 21.52 12.0006 21.52Z" fill="#4361EE"/>
<path d="M12.6896 16.7701C12.3396 16.7701 12.0196 16.5201 11.9496 16.1601C11.8696 15.7501 12.1396 15.3601 12.5496 15.2901C13.6496 15.0901 14.5696 14.1701 14.7696 13.0701C14.8496 12.6601 15.2396 12.4001 15.6496 12.4701C16.0596 12.5501 16.3296 12.9401 16.2496 13.3501C15.9296 15.0801 14.5496 16.4501 12.8296 16.7701C12.7796 16.7601 12.7396 16.7701 12.6896 16.7701Z" fill="#4361EE"/>
<path d="M1.99945 23.25C1.80945 23.25 1.61945 23.18 1.46945 23.03C1.17945 22.74 1.17945 22.26 1.46945 21.97L8.93945 14.5C9.22945 14.21 9.70945 14.21 9.99945 14.5C10.2895 14.79 10.2895 15.27 9.99945 15.56L2.52945 23.03C2.37945 23.18 2.18945 23.25 1.99945 23.25Z" fill="#4361EE"/>
<path d="M14.5307 10.7199C14.3407 10.7199 14.1507 10.6499 14.0007 10.4999C13.7107 10.2099 13.7107 9.72994 14.0007 9.43994L21.4707 1.96994C21.7607 1.67994 22.2407 1.67994 22.5307 1.96994C22.8207 2.25994 22.8207 2.73994 22.5307 3.02994L15.0607 10.4999C14.9107 10.6499 14.7207 10.7199 14.5307 10.7199Z" fill="#4361EE"/>
</svg>
