<svg width="25" height="25" viewBox="0 0 25 25" fill="none" xmlns="http://www.w3.org/2000/svg">
<path d="M6.51111 23.6706C4.17111 23.6706 2.19111 21.6906 2.19111 19.3506V13.1906C2.14111 10.2706 3.22111 7.52057 5.24111 5.46057C7.26111 3.41057 9.97111 2.27057 12.8911 2.27057C18.8511 2.27057 23.6911 7.12057 23.6911 13.0706V19.2306C23.6911 21.6106 21.7511 23.5506 19.3711 23.5506C17.0311 23.5506 15.0511 21.5706 15.0511 19.2306V16.4206C15.0511 14.9706 16.1911 13.8306 17.6411 13.8306C19.0911 13.8306 20.2311 14.9706 20.2311 16.4206V19.4506C20.2311 19.8606 19.8911 20.2006 19.4811 20.2006C19.0711 20.2006 18.7311 19.8606 18.7311 19.4506V16.4206C18.7311 15.7406 18.1811 15.3306 17.6411 15.3306C16.9611 15.3306 16.5511 15.8806 16.5511 16.4206V19.2306C16.5511 20.7606 17.8411 22.0506 19.3711 22.0506C20.9011 22.0506 22.1911 20.7606 22.1911 19.2306V13.0706C22.1911 7.94057 18.0211 3.77057 12.8911 3.77057C10.3811 3.77057 8.05111 4.74057 6.31111 6.51057C4.57111 8.28057 3.64111 10.6506 3.69111 13.1706V19.3506C3.69111 20.8806 4.98111 22.1706 6.51111 22.1706C8.04111 22.1706 9.33111 20.8806 9.33111 19.3506V16.5406C9.33111 15.8606 8.78111 15.4506 8.24111 15.4506C7.56111 15.4506 7.15111 16.0006 7.15111 16.5406V19.4606C7.15111 19.8706 6.81111 20.2106 6.40111 20.2106C5.99111 20.2106 5.65111 19.8706 5.65111 19.4606V16.5406C5.65111 15.0906 6.79111 13.9506 8.24111 13.9506C9.69111 13.9506 10.8311 15.0906 10.8311 16.5406V19.3506C10.8311 21.6906 8.85111 23.6706 6.51111 23.6706Z" fill="#4361EE"/>
</svg>
