<svg width="24" height="25" viewBox="0 0 24 25" fill="none" xmlns="http://www.w3.org/2000/svg">
<path d="M12 22.1501C11.69 22.1501 11.39 22.1101 11.14 22.0201C7.32 20.7101 1.25 16.0601 1.25 9.1901C1.25 5.6901 4.08 2.8501 7.56 2.8501C9.25 2.8501 10.83 3.5101 12 4.6901C13.17 3.5101 14.75 2.8501 16.44 2.8501C19.92 2.8501 22.75 5.7001 22.75 9.1901C22.75 16.0701 16.68 20.7101 12.86 22.0201C12.61 22.1101 12.31 22.1501 12 22.1501ZM7.56 4.3501C4.91 4.3501 2.75 6.5201 2.75 9.1901C2.75 16.0201 9.32 19.8201 11.63 20.6101C11.81 20.6701 12.2 20.6701 12.38 20.6101C14.68 19.8201 21.26 16.0301 21.26 9.1901C21.26 6.5201 19.1 4.3501 16.45 4.3501C14.93 4.3501 13.52 5.0601 12.61 6.2901C12.33 6.6701 11.69 6.6701 11.41 6.2901C10.48 5.0501 9.08 4.3501 7.56 4.3501Z" fill="#D90429"/>
</svg>
