<svg width="24" height="25" viewBox="0 0 24 25" fill="none" xmlns="http://www.w3.org/2000/svg">
<path d="M20.3795 21.63C20.1795 21.63 19.9895 21.55 19.8495 21.41L13.4695 15.03C13.1795 14.74 13.1795 14.26 13.4695 13.97L21.1995 6.24001C21.3895 6.05001 21.6795 5.98001 21.9395 6.05001C22.1995 6.13001 22.3994 6.34001 22.4594 6.60001C22.6494 7.45001 22.7495 8.40001 22.7495 9.50001V15.5C22.7495 18.27 22.1695 20.14 20.9095 21.41C20.7695 21.55 20.5595 21.58 20.3795 21.63ZM15.0594 14.5L20.3195 19.76C20.9495 18.79 21.2495 17.41 21.2495 15.5V9.50001C21.2495 9.09001 21.2394 8.71001 21.2094 8.35001L15.0594 14.5Z" fill="#4361EE"/>
<path d="M6.26999 22.98C6.20999 22.98 6.16001 22.97 6.10001 22.96C2.79001 22.2 1.25 19.83 1.25 15.5V9.5C1.25 4.07 3.57 1.75 9 1.75H15C19.33 1.75 21.7 3.29001 22.46 6.60001C22.52 6.85001 22.44 7.12 22.26 7.3L6.79999 22.76C6.65999 22.9 6.46999 22.98 6.26999 22.98ZM9 3.25C4.39 3.25 2.75 4.89 2.75 9.5V15.5C2.75 18.97 3.71001 20.71 6.04001 21.4L20.89 6.55C20.21 4.22 18.46 3.25999 14.99 3.25999H9V3.25Z" fill="#4361EE"/>
<path d="M15.0004 23.2499H9.00037C7.90037 23.2499 6.96038 23.1599 6.10038 22.9599C5.83038 22.8999 5.62036 22.6999 5.55036 22.4399C5.47036 22.1799 5.55036 21.8999 5.74036 21.6999L13.4704 13.9699C13.7604 13.6799 14.2404 13.6799 14.5304 13.9699L20.9104 20.3499C21.0504 20.4899 21.1304 20.6799 21.1304 20.8799C21.1304 21.0799 21.0504 21.2699 20.9104 21.4099C19.6404 22.6699 17.7704 23.2499 15.0004 23.2499ZM7.85038 21.7099C8.21038 21.7399 8.59037 21.7499 9.00037 21.7499H15.0004C16.9204 21.7499 18.2904 21.4499 19.2604 20.8199L14.0004 15.5599L7.85038 21.7099Z" fill="#4361EE"/>
<path d="M9.11896 13.81C8.48896 13.81 7.85895 13.58 7.35895 13.11C5.76895 11.6 5.12898 9.94005 5.50898 8.32005C5.88898 6.66005 7.33896 5.54004 9.11896 5.54004C10.899 5.54004 12.349 6.66005 12.729 8.32005C13.099 9.95005 12.459 11.6 10.869 13.11C10.379 13.57 9.74896 13.81 9.11896 13.81ZM6.96897 8.65004C6.64897 10.01 7.56896 11.2301 8.39896 12.0201C8.80896 12.41 9.43897 12.41 9.83897 12.0201C10.659 11.2401 11.579 10.02 11.269 8.65004C10.999 7.46004 9.93896 7.03004 9.11896 7.03004C8.29896 7.03004 7.24897 7.46004 6.96897 8.65004Z" fill="#4361EE"/>
<path d="M9.15039 9.99023C8.60039 9.99023 8.15039 9.54023 8.15039 8.99023C8.15039 8.44023 8.59039 7.99023 9.15039 7.99023H9.1604C9.7104 7.99023 10.1604 8.44023 10.1604 8.99023C10.1604 9.54023 9.70039 9.99023 9.15039 9.99023Z" fill="#4361EE"/>
</svg>
