<svg width="24" height="25" viewBox="0 0 24 25" fill="none" xmlns="http://www.w3.org/2000/svg">
<path d="M16 23.25H3C2.04 23.25 1.25 22.46 1.25 21.5V8.5C1.25 4.08 3.58 1.75 8 1.75H16C20.42 1.75 22.75 4.08 22.75 8.5V16.5C22.75 20.92 20.42 23.25 16 23.25ZM8 3.25C4.42 3.25 2.75 4.92 2.75 8.5V21.5C2.75 21.64 2.86 21.75 3 21.75H16C19.58 21.75 21.25 20.08 21.25 16.5V8.5C21.25 4.92 19.58 3.25 16 3.25H8Z" fill="#4361EE"/>
<path d="M17 10.75H7C6.59 10.75 6.25 10.41 6.25 10C6.25 9.59 6.59 9.25 7 9.25H17C17.41 9.25 17.75 9.59 17.75 10C17.75 10.41 17.41 10.75 17 10.75Z" fill="#4361EE"/>
<path d="M14 15.75H7C6.59 15.75 6.25 15.41 6.25 15C6.25 14.59 6.59 14.25 7 14.25H14C14.41 14.25 14.75 14.59 14.75 15C14.75 15.41 14.41 15.75 14 15.75Z" fill="#4361EE"/>
</svg>
