<svg width="24" height="25" viewBox="0 0 24 25" fill="none" xmlns="http://www.w3.org/2000/svg">
<path d="M12.4604 23.2501C12.2904 23.2501 12.1204 23.2501 11.9504 23.2401C6.35044 22.9901 1.67044 18.4801 1.28044 12.9801C0.940429 8.26011 3.67044 3.85011 8.07044 2.00011C9.32044 1.48012 9.98044 1.88011 10.2604 2.17011C10.5404 2.45011 10.9304 3.10011 10.4104 4.29011C9.95044 5.35011 9.72044 6.48011 9.73044 7.64011C9.75044 12.0701 13.4304 15.8301 17.9204 16.0101C18.5704 16.0401 19.2104 15.9901 19.8304 15.8801C21.1504 15.6401 21.7004 16.1701 21.9104 16.5101C22.1204 16.8501 22.3604 17.5801 21.5604 18.6601C19.4404 21.5601 16.0704 23.2501 12.4604 23.2501ZM2.77044 12.8701C3.11044 17.6301 7.17044 21.5301 12.0104 21.7401C15.3004 21.9001 18.4204 20.4001 20.3404 17.7801C20.4904 17.5701 20.5604 17.4201 20.5904 17.3401C20.5004 17.3301 20.3404 17.3201 20.0904 17.3701C19.3604 17.5001 18.6004 17.5501 17.8504 17.5201C12.5704 17.3101 8.25044 12.8801 8.22044 7.66011C8.22044 6.28011 8.49044 4.95011 9.04044 3.70011C9.14044 3.48011 9.16044 3.33011 9.17044 3.25011C9.08044 3.25011 8.92044 3.27011 8.66044 3.38011C4.85044 4.98011 2.49044 8.80011 2.77044 12.8701Z" fill="#4361EE"/>
</svg>
