<svg width="24" height="25" viewBox="0 0 24 25" fill="none" xmlns="http://www.w3.org/2000/svg">
<path d="M11.9998 13.8C11.8698 13.8 11.7398 13.77 11.6198 13.7L2.78985 8.59002C2.42985 8.38002 2.30983 7.91999 2.51983 7.55999C2.72983 7.19999 3.17983 7.07997 3.54983 7.28997L11.9998 12.18L20.3998 7.32C20.7598 7.11 21.2198 7.24002 21.4298 7.59002C21.6398 7.95002 21.5098 8.40999 21.1598 8.61999L12.3899 13.7C12.2599 13.76 12.1298 13.8 11.9998 13.8Z" fill="#4361EE"/>
<path d="M12 22.86C11.59 22.86 11.25 22.52 11.25 22.11V13.04C11.25 12.63 11.59 12.29 12 12.29C12.41 12.29 12.75 12.63 12.75 13.04V22.11C12.75 22.52 12.41 22.86 12 22.86Z" fill="#4361EE"/>
<path d="M12.0001 23.25C11.1201 23.25 10.2501 23.06 9.56012 22.68L4.22012 19.71C2.77012 18.91 1.64014 16.98 1.64014 15.32V9.66998C1.64014 8.00998 2.77012 6.09002 4.22012 5.28002L9.56012 2.32C10.9301 1.56 13.0701 1.56 14.4401 2.32L19.7801 5.28997C21.2301 6.08997 22.3601 8.01999 22.3601 9.67999V15.33C22.3601 16.99 21.2301 18.91 19.7801 19.72L14.4401 22.68C13.7501 23.06 12.8801 23.25 12.0001 23.25ZM12.0001 3.24999C11.3701 3.24999 10.7501 3.38 10.2901 3.63L4.95013 6.59997C3.99013 7.13997 3.14014 8.56999 3.14014 9.67999V15.33C3.14014 16.43 3.99013 17.87 4.95013 18.41L10.2901 21.38C11.2001 21.89 12.8001 21.89 13.7101 21.38L19.0501 18.41C20.0101 17.87 20.8601 16.44 20.8601 15.33V9.67999C20.8601 8.57999 20.0101 7.13997 19.0501 6.59997L13.7101 3.63C13.2501 3.38 12.6301 3.24999 12.0001 3.24999Z" fill="#4361EE"/>
<path d="M17.0002 14.49C16.5902 14.49 16.2502 14.15 16.2502 13.74V10.5201L7.13018 5.26007C6.77018 5.05007 6.65016 4.59005 6.86016 4.24005C7.07016 3.88005 7.52018 3.76003 7.88018 3.97003L17.3702 9.45007C17.6002 9.58007 17.7502 9.83003 17.7502 10.1V13.7601C17.7502 14.1501 17.4102 14.49 17.0002 14.49Z" fill="#4361EE"/>
</svg>
