<svg width="24" height="25" viewBox="0 0 24 25" fill="none" xmlns="http://www.w3.org/2000/svg">
<path d="M10 18.2H6.21C2.41 18.2 1.25 17.04 1.25 13.24V7.24003C1.25 3.44003 2.41 2.28003 6.21 2.28003H16.74C20.54 2.28003 21.7 3.44003 21.7 7.24003C21.7 7.65003 21.36 7.99003 20.95 7.99003C20.54 7.99003 20.2 7.65003 20.2 7.24003C20.2 4.30003 19.68 3.78003 16.74 3.78003H6.21C3.27 3.78003 2.75 4.30003 2.75 7.24003V13.24C2.75 16.18 3.27 16.7 6.21 16.7H10C10.41 16.7 10.75 17.04 10.75 17.45C10.75 17.86 10.41 18.2 10 18.2Z" fill="#4361EE"/>
<path d="M10 22.7199C9.59 22.7199 9.25 22.3799 9.25 21.9699V17.4399C9.25 17.0299 9.59 16.6899 10 16.6899C10.41 16.6899 10.75 17.0299 10.75 17.4399V21.9699C10.75 22.3899 10.41 22.7199 10 22.7199Z" fill="#4361EE"/>
<path d="M10 14.2H2C1.59 14.2 1.25 13.86 1.25 13.45C1.25 13.04 1.59 12.7 2 12.7H10C10.41 12.7 10.75 13.04 10.75 13.45C10.75 13.86 10.41 14.2 10 14.2Z" fill="#4361EE"/>
<path d="M10.0002 22.72H6.74023C6.33023 22.72 5.99023 22.38 5.99023 21.97C5.99023 21.56 6.33023 21.22 6.74023 21.22H10.0002C10.4102 21.22 10.7502 21.56 10.7502 21.97C10.7502 22.38 10.4102 22.72 10.0002 22.72Z" fill="#4361EE"/>
<path d="M19.0403 22.7201H15.4903C12.7203 22.7201 11.7803 21.7801 11.7803 19.0101V13.3001C11.7803 10.5301 12.7203 9.59009 15.4903 9.59009H19.0403C21.8103 9.59009 22.7503 10.5301 22.7503 13.3001V19.0101C22.7503 21.7901 21.8103 22.7201 19.0403 22.7201ZM15.4903 11.0901C13.5303 11.0901 13.2803 11.3401 13.2803 13.3001V19.0101C13.2803 20.9701 13.5303 21.2201 15.4903 21.2201H19.0403C21.0003 21.2201 21.2503 20.9701 21.2503 19.0101V13.3001C21.2503 11.3401 21.0003 11.0901 19.0403 11.0901H15.4903Z" fill="#4361EE"/>
<path d="M17.2998 19.47C17.0398 19.47 16.7798 19.37 16.5898 19.18C16.4998 19.09 16.4298 18.98 16.3798 18.86C16.3298 18.73 16.2998 18.6 16.2998 18.47C16.2998 18.21 16.4098 17.95 16.5898 17.77C16.8198 17.54 17.1698 17.43 17.4998 17.49C17.5598 17.51 17.6198 17.53 17.6798 17.55C17.7398 17.58 17.7998 17.61 17.8498 17.64C17.9098 17.68 17.9598 17.72 18.0098 17.77C18.1898 17.95 18.2998 18.21 18.2998 18.47C18.2998 18.6 18.2698 18.73 18.2198 18.86C18.1698 18.98 18.0998 19.09 18.0098 19.18C17.9598 19.23 17.9098 19.27 17.8498 19.3C17.7998 19.34 17.7398 19.37 17.6798 19.4C17.6198 19.42 17.5598 19.44 17.4998 19.45C17.4298 19.47 17.3698 19.47 17.2998 19.47Z" fill="#4361EE"/>
</svg>
