<svg width="24" height="25" viewBox="0 0 24 25" fill="none" xmlns="http://www.w3.org/2000/svg">
<path d="M9.6 21.25C5.21 21.25 3.25 19.29 3.25 14.9V10.1C3.25 5.71 5.21 3.75 9.6 3.75H14.4C18.79 3.75 20.75 5.71 20.75 10.1C20.75 10.51 20.41 10.85 20 10.85C19.59 10.85 19.25 10.51 19.25 10.1C19.25 6.52 17.98 5.25 14.4 5.25H9.6C6.02 5.25 4.75 6.52 4.75 10.1V14.9C4.75 18.48 6.02 19.75 9.6 19.75C10.01 19.75 10.35 20.09 10.35 20.5C10.35 20.91 10.01 21.25 9.6 21.25Z" fill="#4361EE"/>
<path d="M7.99023 17.6C7.83023 17.6 7.66023 17.55 7.52023 17.44C6.65023 16.75 6.24023 15.65 6.24023 14V11C6.24023 8.1 7.59023 6.75 10.4902 6.75H13.4902C15.1402 6.75 16.2302 7.16 16.9302 8.03C17.1902 8.35 17.1302 8.83 16.8102 9.08C16.4902 9.34 16.0102 9.29 15.7602 8.96C15.5202 8.65 15.0202 8.25 13.5002 8.25H10.5002C8.42023 8.25 7.75023 8.92 7.75023 11V14C7.75023 15.52 8.16023 16.02 8.46023 16.26C8.78023 16.52 8.84023 16.99 8.58023 17.31C8.43023 17.5 8.21023 17.6 7.99023 17.6Z" fill="#4361EE"/>
<path d="M8.00977 5.25C7.58977 5.25 7.25977 4.91 7.25977 4.5V2.5C7.25977 2.09 7.59977 1.75 8.00977 1.75C8.41977 1.75 8.75977 2.09 8.75977 2.5V4.5C8.75977 4.91 8.41977 5.25 8.00977 5.25Z" fill="#4361EE"/>
<path d="M12 5.25C11.59 5.25 11.25 4.91 11.25 4.5V2.5C11.25 2.09 11.59 1.75 12 1.75C12.41 1.75 12.75 2.09 12.75 2.5V4.5C12.75 4.91 12.41 5.25 12 5.25Z" fill="#4361EE"/>
<path d="M16 5.25C15.59 5.25 15.25 4.91 15.25 4.5V2.5C15.25 2.09 15.59 1.75 16 1.75C16.41 1.75 16.75 2.09 16.75 2.5V4.5C16.75 4.91 16.41 5.25 16 5.25Z" fill="#4361EE"/>
<path d="M22 9.25H20C19.59 9.25 19.25 8.91 19.25 8.5C19.25 8.09 19.59 7.75 20 7.75H22C22.41 7.75 22.75 8.09 22.75 8.5C22.75 8.91 22.42 9.25 22 9.25Z" fill="#4361EE"/>
<path d="M8.00977 23.25C7.59977 23.25 7.25977 22.91 7.25977 22.5V20.5C7.25977 20.09 7.59977 19.75 8.00977 19.75C8.41977 19.75 8.75977 20.09 8.75977 20.5V22.5C8.75977 22.91 8.41977 23.25 8.00977 23.25Z" fill="#4361EE"/>
<path d="M4 9.25H2C1.59 9.25 1.25 8.92 1.25 8.5C1.25 8.08 1.59 7.75 2 7.75H4C4.41 7.75 4.75 8.09 4.75 8.5C4.75 8.91 4.42 9.25 4 9.25Z" fill="#4361EE"/>
<path d="M4 13.25H2C1.59 13.25 1.25 12.91 1.25 12.5C1.25 12.09 1.59 11.75 2 11.75H4C4.41 11.75 4.75 12.09 4.75 12.5C4.75 12.91 4.42 13.25 4 13.25Z" fill="#4361EE"/>
<path d="M4 17.25H2C1.59 17.25 1.25 16.91 1.25 16.5C1.25 16.09 1.59 15.75 2 15.75H4C4.41 15.75 4.75 16.09 4.75 16.5C4.75 16.91 4.42 17.25 4 17.25Z" fill="#4361EE"/>
<path d="M16.7101 19.8399C15.4201 19.8399 14.3701 18.7899 14.3701 17.4999C14.3701 16.2099 15.4201 15.1599 16.7101 15.1599C18.0001 15.1599 19.0501 16.2099 19.0501 17.4999C19.0401 18.7899 18.0001 19.8399 16.7101 19.8399ZM16.7101 16.6599C16.2501 16.6599 15.8701 17.0399 15.8701 17.4999C15.8701 17.9599 16.2501 18.3399 16.7101 18.3399C17.1701 18.3399 17.5501 17.9599 17.5501 17.4999C17.5401 17.0399 17.1701 16.6599 16.7101 16.6599Z" fill="#4361EE"/>
<path d="M18.4004 23.2499C17.8404 23.2499 17.2904 22.9599 16.9904 22.4399L16.9204 22.3299C16.8104 22.1399 16.7204 22.0899 16.7004 22.0799C16.6904 22.0799 16.5904 22.1399 16.4804 22.3299L16.4204 22.4299C15.9604 23.2199 14.9504 23.4799 14.1804 23.0199L13.2804 22.4999C12.8704 22.2699 12.5804 21.8899 12.4604 21.4299C12.3404 20.9799 12.4004 20.4999 12.6304 20.0999C12.7404 19.9099 12.7404 19.7999 12.7304 19.7799C12.7204 19.7699 12.6304 19.7199 12.4104 19.7199C11.4404 19.7199 10.6504 18.9299 10.6504 17.9699V17.0399C10.6504 16.0699 11.4404 15.2899 12.4004 15.2899C12.6204 15.2899 12.7104 15.2299 12.7304 15.2199C12.7304 15.2099 12.7304 15.0999 12.6204 14.9099C12.3904 14.4999 12.3204 14.0299 12.4504 13.5799C12.5704 13.1299 12.8604 12.7499 13.2704 12.5099L14.1804 11.9799C14.9404 11.5299 15.9504 11.7899 16.4004 12.5699L16.4604 12.6799C16.5704 12.8699 16.6604 12.9199 16.6804 12.9299C16.6904 12.9299 16.7904 12.8699 16.9004 12.6799L16.9604 12.5799C17.4304 11.7899 18.4304 11.5299 19.2004 11.9899L20.1304 12.4999C20.5404 12.7299 20.8304 13.1099 20.9504 13.5699C21.0704 14.0199 21.0104 14.4999 20.7804 14.8999C20.6704 15.0899 20.6704 15.1999 20.6804 15.2199C20.6904 15.2299 20.7804 15.2799 21.0004 15.2799C21.9704 15.2799 22.7604 16.0699 22.7604 17.0299V17.9599C22.7604 18.9299 21.9704 19.7099 21.0104 19.7099C20.7904 19.7099 20.7004 19.7699 20.6804 19.7799C20.6804 19.7899 20.6804 19.8999 20.7904 20.0899C21.0204 20.4999 21.0904 20.9699 20.9604 21.4199C20.8404 21.8699 20.5504 22.2499 20.1404 22.4899L19.2304 23.0199C18.9604 23.1699 18.6804 23.2499 18.4004 23.2499ZM16.7104 20.5799C17.3104 20.5799 17.8604 20.9399 18.2304 21.5799L18.2904 21.6899C18.3204 21.7399 18.4004 21.7699 18.4604 21.7299L19.3804 21.1999C19.4604 21.1599 19.4904 21.0799 19.5004 21.0399C19.5104 20.9999 19.5204 20.9299 19.4804 20.8499C19.1104 20.2199 19.0804 19.5599 19.3804 19.0399C19.6804 18.5199 20.2704 18.2199 21.0004 18.2199C21.1404 18.2199 21.2604 18.0999 21.2604 17.9699V17.0399C21.2604 16.8999 21.1404 16.7899 21.0104 16.7899C20.2804 16.7899 19.6804 16.4899 19.3904 15.9699C19.0904 15.4499 19.1304 14.7899 19.4904 14.1599C19.5404 14.0799 19.5304 13.9999 19.5104 13.9699C19.5004 13.9299 19.4704 13.8599 19.3904 13.8099L18.4804 13.2799C18.4104 13.2399 18.3304 13.2699 18.2904 13.3299L18.2404 13.4199C17.8704 14.0599 17.3204 14.4199 16.7204 14.4199C16.1204 14.4199 15.5704 14.0599 15.2004 13.4199L15.1404 13.3199C15.1104 13.2599 15.0204 13.2399 14.9704 13.2699L14.0504 13.7999C13.9704 13.8399 13.9404 13.9199 13.9304 13.9599C13.9204 13.9999 13.9104 14.0699 13.9504 14.1499C14.3204 14.7799 14.3504 15.4399 14.0504 15.9599C13.7504 16.4799 13.1604 16.7799 12.4304 16.7799C12.2904 16.7799 12.1704 16.8999 12.1704 17.0299V17.9599C12.1704 18.0999 12.2904 18.2099 12.4204 18.2099C13.1504 18.2099 13.7504 18.5099 14.0404 19.0299C14.3404 19.5499 14.3004 20.2099 13.9404 20.8399C13.9004 20.9199 13.9104 20.9899 13.9204 21.0299C13.9304 21.0699 13.9604 21.1399 14.0404 21.1899L14.9504 21.7199C15.0204 21.7599 15.1004 21.7299 15.1404 21.6699L15.1904 21.5699C15.5504 20.9399 16.1104 20.5799 16.7104 20.5799Z" fill="#4361EE"/>
</svg>
