<svg width="24" height="25" viewBox="0 0 24 25" fill="none" xmlns="http://www.w3.org/2000/svg">
<path d="M12.0002 23.1298C11.3302 23.1298 10.6502 22.9798 10.1202 22.6698L4.62023 19.4998C2.38023 17.9898 2.24023 17.7598 2.24023 15.3898V9.60981C2.24023 7.23981 2.37023 7.0098 4.57023 5.5198L10.1102 2.3198C11.1602 1.7098 12.8102 1.7098 13.8602 2.3198L19.3802 5.4998C21.6202 7.0098 21.7602 7.23981 21.7602 9.60981V15.3798C21.7602 17.7498 21.6302 17.9798 19.4302 19.4698L13.8902 22.6698C13.3502 22.9798 12.6702 23.1298 12.0002 23.1298ZM12.0002 3.3698C11.5802 3.3698 11.1702 3.4498 10.8802 3.6198L5.38023 6.7998C3.75023 7.8998 3.75023 7.89981 3.75023 9.60981V15.3798C3.75023 17.0898 3.75023 17.0898 5.42023 18.2198L10.8802 21.3698C11.4702 21.7098 12.5402 21.7098 13.1302 21.3698L18.6302 18.1898C20.2502 17.0898 20.2502 17.0898 20.2502 15.3798V9.60981C20.2502 7.89981 20.2502 7.8998 18.5802 6.7698L13.1202 3.6198C12.8302 3.4498 12.4202 3.3698 12.0002 3.3698Z" fill="#4361EE"/>
<path d="M12 16.25C9.93 16.25 8.25 14.57 8.25 12.5C8.25 10.43 9.93 8.75 12 8.75C14.07 8.75 15.75 10.43 15.75 12.5C15.75 14.57 14.07 16.25 12 16.25ZM12 10.25C10.76 10.25 9.75 11.26 9.75 12.5C9.75 13.74 10.76 14.75 12 14.75C13.24 14.75 14.25 13.74 14.25 12.5C14.25 11.26 13.24 10.25 12 10.25Z" fill="#4361EE"/>
</svg>
