<svg width="24" height="25" viewBox="0 0 24 25" fill="none" xmlns="http://www.w3.org/2000/svg">
<path d="M17.9998 8.41002C17.9698 8.41002 17.9498 8.41002 17.9198 8.41002H17.8698C15.9798 8.35002 14.5698 6.89001 14.5698 5.09001C14.5698 3.25001 16.0698 1.76001 17.8998 1.76001C19.7298 1.76001 21.2298 3.26001 21.2298 5.09001C21.2198 6.90001 19.8098 8.36001 18.0098 8.42001C18.0098 8.41001 18.0098 8.41002 17.9998 8.41002ZM17.8998 3.25002C16.8898 3.25002 16.0698 4.07002 16.0698 5.08002C16.0698 6.07002 16.8398 6.87002 17.8298 6.91002C17.8398 6.90002 17.9198 6.90002 18.0098 6.91002C18.9798 6.86002 19.7298 6.06002 19.7398 5.08002C19.7398 4.07002 18.9198 3.25002 17.8998 3.25002Z" fill="#4361EE"/>
<path d="M18.01 15.78C17.62 15.78 17.23 15.75 16.84 15.68C16.43 15.61 16.16 15.22 16.23 14.81C16.3 14.4 16.69 14.13 17.1 14.2C18.33 14.41 19.63 14.18 20.5 13.6C20.97 13.29 21.22 12.9 21.22 12.51C21.22 12.12 20.96 11.74 20.5 11.43C19.63 10.85 18.31 10.62 17.07 10.84C16.66 10.92 16.27 10.64 16.2 10.23C16.13 9.82002 16.4 9.43003 16.81 9.36003C18.44 9.07003 20.13 9.38002 21.33 10.18C22.21 10.77 22.72 11.61 22.72 12.51C22.72 13.4 22.22 14.25 21.33 14.85C20.42 15.45 19.24 15.78 18.01 15.78Z" fill="#4361EE"/>
<path d="M5.96998 8.41C5.95998 8.41 5.94998 8.41 5.94998 8.41C4.14998 8.35 2.73998 6.89 2.72998 5.09C2.72998 3.25 4.22998 1.75 6.05998 1.75C7.88998 1.75 9.38998 3.25 9.38998 5.08C9.38998 6.89 7.97998 8.35 6.17998 8.41L5.96998 7.66L6.03998 8.41C6.01998 8.41 5.98998 8.41 5.96998 8.41ZM6.06998 6.91C6.12998 6.91 6.17998 6.91 6.23998 6.92C7.12998 6.88 7.90998 6.08 7.90998 5.09C7.90998 4.08 7.08998 3.25999 6.07998 3.25999C5.06998 3.25999 4.24998 4.08 4.24998 5.09C4.24998 6.07 5.00998 6.86 5.97998 6.92C5.98998 6.91 6.02998 6.91 6.06998 6.91Z" fill="#4361EE"/>
<path d="M5.96 15.78C4.73 15.78 3.55 15.45 2.64 14.85C1.76 14.26 1.25 13.41 1.25 12.51C1.25 11.62 1.76 10.77 2.64 10.18C3.84 9.38002 5.53 9.07003 7.16 9.36003C7.57 9.43003 7.84 9.82002 7.77 10.23C7.7 10.64 7.31 10.92 6.9 10.84C5.66 10.62 4.35 10.85 3.47 11.43C3 11.74 2.75 12.12 2.75 12.51C2.75 12.9 3.01 13.29 3.47 13.6C4.34 14.18 5.64 14.41 6.87 14.2C7.28 14.13 7.67 14.41 7.74 14.81C7.81 15.22 7.54 15.61 7.13 15.68C6.74 15.75 6.35 15.78 5.96 15.78Z" fill="#4361EE"/>
<path d="M11.9998 15.88C11.9698 15.88 11.9498 15.88 11.9198 15.88H11.8698C9.97982 15.82 8.56982 14.36 8.56982 12.56C8.56982 10.72 10.0698 9.22998 11.8998 9.22998C13.7298 9.22998 15.2298 10.73 15.2298 12.56C15.2198 14.37 13.8098 15.83 12.0098 15.89C12.0098 15.88 12.0098 15.88 11.9998 15.88ZM11.8998 10.72C10.8898 10.72 10.0698 11.54 10.0698 12.55C10.0698 13.54 10.8398 14.34 11.8298 14.38C11.8398 14.37 11.9198 14.37 12.0098 14.38C12.9798 14.33 13.7298 13.53 13.7398 12.55C13.7398 11.55 12.9198 10.72 11.8998 10.72Z" fill="#4361EE"/>
<path d="M11.9998 23.26C10.7998 23.26 9.59978 22.95 8.66978 22.32C7.78978 21.73 7.27979 20.89 7.27979 19.99C7.27979 19.1 7.77978 18.24 8.66978 17.65C10.5398 16.41 13.4698 16.41 15.3298 17.65C16.2098 18.24 16.7198 19.08 16.7198 19.98C16.7198 20.87 16.2198 21.73 15.3298 22.32C14.3998 22.94 13.1998 23.26 11.9998 23.26ZM9.49979 18.91C9.02979 19.22 8.77979 19.61 8.77979 20C8.77979 20.39 9.03979 20.77 9.49979 21.08C10.8498 21.99 13.1398 21.99 14.4898 21.08C14.9598 20.77 15.2098 20.38 15.2098 19.99C15.2098 19.6 14.9498 19.22 14.4898 18.91C13.1498 18 10.8598 18.01 9.49979 18.91Z" fill="#4361EE"/>
</svg>
